<?xml version="1.0"?>
<svg xmlns="http://www.w3.org/2000/svg" xmlns:xlink="http://www.w3.org/1999/xlink" xmlns:svgjs="http://svgjs.com/svgjs" version="1.1" width="512" height="512" x="0" y="0" viewBox="0 0 398.629 398.629" style="enable-background:new 0 0 512 512" xml:space="preserve" class=""><g>
<g xmlns="http://www.w3.org/2000/svg">
	<g>
		<g>
			<rect x="0" y="31.347" width="313.469" height="26.122" fill="#086ca2" data-original="#000000" style=""/>
			<path d="M6.269,73.143l120.686,122.253c1.567,1.567,3.657,3.657,3.657,5.747v166.139l52.245-28.212V201.143     c0-2.09,2.09-4.18,3.657-5.747L307.2,73.143H6.269z" fill="#086ca2" data-original="#000000" style=""/>
			<path d="M327.053,182.335c-39.818-0.289-72.33,31.756-72.619,71.574c-0.289,39.818,31.756,72.33,71.574,72.618     s72.33-31.756,72.618-71.574c0.001-0.173,0.002-0.347,0.002-0.521C398.63,214.817,366.667,182.622,327.053,182.335z      M376.163,266.449h-94.041c-4.328,0-7.837-3.509-7.837-7.837c0-4.328,3.509-7.837,7.837-7.837h94.041     c4.328,0,7.837,3.509,7.837,7.837C384,262.94,380.491,266.449,376.163,266.449z" fill="#086ca2" data-original="#000000" style=""/>
		</g>
	</g>
</g>
<g xmlns="http://www.w3.org/2000/svg">
</g>
<g xmlns="http://www.w3.org/2000/svg">
</g>
<g xmlns="http://www.w3.org/2000/svg">
</g>
<g xmlns="http://www.w3.org/2000/svg">
</g>
<g xmlns="http://www.w3.org/2000/svg">
</g>
<g xmlns="http://www.w3.org/2000/svg">
</g>
<g xmlns="http://www.w3.org/2000/svg">
</g>
<g xmlns="http://www.w3.org/2000/svg">
</g>
<g xmlns="http://www.w3.org/2000/svg">
</g>
<g xmlns="http://www.w3.org/2000/svg">
</g>
<g xmlns="http://www.w3.org/2000/svg">
</g>
<g xmlns="http://www.w3.org/2000/svg">
</g>
<g xmlns="http://www.w3.org/2000/svg">
</g>
<g xmlns="http://www.w3.org/2000/svg">
</g>
<g xmlns="http://www.w3.org/2000/svg">
</g>
</g></svg>
