<?xml version="1.0"?>
<svg xmlns="http://www.w3.org/2000/svg" xmlns:xlink="http://www.w3.org/1999/xlink" xmlns:svgjs="http://svgjs.com/svgjs" version="1.1" width="512" height="512" x="0" y="0" viewBox="0 0 128 128" style="enable-background:new 0 0 512 512" xml:space="preserve"><g><g xmlns="http://www.w3.org/2000/svg" id="Circle_Grid" data-name="Circle Grid"><circle cx="64" cy="64" fill="#3b5059" r="64" data-original="#3b5059" style=""/></g><g xmlns="http://www.w3.org/2000/svg" id="icon"><path d="m40.255 55.343c3.427 13.436 18.345 21.231 18.345 21.231s9.359-13.988 5.931-27.423-18.344-21.231-18.344-21.231-9.359 13.988-5.932 27.423z" fill="#da364c" data-original="#da364c" style=""/><path d="m34.685 62.89c6.915 12.018 23.38 15.51 23.38 15.51s5.249-15.99-1.667-28.008-23.38-15.511-23.38-15.511-5.249 15.992 1.667 28.009z" fill="#fc758e" data-original="#fc758e" style=""/><path d="m31.83 74.034c9.73 9.879 26.541 9.1 26.541 9.1s1.037-16.8-8.693-26.677-26.541-9.1-26.541-9.1-1.037 16.798 8.693 26.677z" fill="#ef5261" data-original="#ef5261" style=""/><path d="m45.7 95.721c10.508-3.9 15.505-16.549 15.505-16.549s-12.039-6.333-22.547-2.436-15.502 16.549-15.502 16.549 12.039 6.333 22.544 2.436z" fill="#2cbfae" data-original="#2cbfae" style=""/><path d="m87.745 55.343c-3.427 13.436-18.345 21.231-18.345 21.231s-9.357-13.988-5.93-27.423 18.343-21.231 18.343-21.231 9.359 13.988 5.932 27.423z" fill="#da364c" data-original="#da364c" style=""/><path d="m93.315 62.89c-6.915 12.018-23.38 15.51-23.38 15.51s-5.249-15.989 1.665-28.006 23.38-15.511 23.38-15.511 5.251 15.99-1.665 28.007z" fill="#fc758e" data-original="#fc758e" style=""/><path d="m96.17 74.034c-9.73 9.879-26.541 9.1-26.541 9.1s-1.037-16.8 8.693-26.677 26.541-9.1 26.541-9.1 1.037 16.798-8.693 26.677z" fill="#ef5261" data-original="#ef5261" style=""/><path d="m79.5 54.059c0 17.154-15.5 31.06-15.5 31.06s-15.5-13.906-15.5-31.06 15.5-31.059 15.5-31.059 15.5 13.906 15.5 31.059z" fill="#f7667b" data-original="#f7667b" style=""/><path d="m82.3 95.721c-10.508-3.9-15.505-16.549-15.505-16.549s12.039-6.333 22.547-2.436 15.505 16.549 15.505 16.549-12.042 6.333-22.547 2.436z" fill="#2cbfae" data-original="#2cbfae" style=""/><path d="m76.339 86.144c.44 11.478-12.339 18.856-12.339 18.856s-12.339-7.71-12.339-18.856q0-.569.028-1.132c.754-15.279 23.869-15.279 24.623 0 .018.375.013.753.027 1.132z" fill="#16a897" data-original="#16a897" style=""/></g></g></svg>
