<svg height="512" viewBox="0 0 128 128" width="512" xmlns="http://www.w3.org/2000/svg"><g id="number"><text fill="#24253a" font-family="MyriadPro-Regular, Myriad Pro" font-size="40" letter-spacing=".002em" transform="translate(63.265 -54.265)">5<tspan x="-10.3" y="228">15</tspan><tspan x="-10.3" y="456">25</tspan><tspan x="-10.3" y="684">35</tspan><tspan x="-10.3" y="912">45</tspan><tspan x="-10.3" y="1140">55</tspan><tspan x="-10.3" y="1368">65</tspan><tspan x="-10.3" y="1596">75</tspan><tspan x="-10.3" y="1824">85</tspan><tspan x="-10.3" y="2052">95</tspan><tspan x="-20.599" y="2280">105</tspan><tspan x="-20.599" y="2508">115</tspan><tspan x="-20.599" y="2736">125</tspan><tspan x="-20.599" y="2964">135</tspan><tspan x="-20.599" y="3192">145</tspan><tspan x="-20.599" y="3420">155</tspan><tspan x="-20.599" y="3648">165</tspan><tspan x="-20.599" y="3876">175</tspan><tspan x="-20.599" y="4104">185</tspan><tspan x="-20.599" y="4332">195</tspan><tspan x="-20.599" y="4560">205</tspan><tspan x="-20.599" y="4788">215</tspan><tspan x="-20.599" y="5016">225</tspan><tspan x="-20.599" y="5244">235</tspan><tspan x="-20.599" y="5472">245</tspan></text></g><g id="Circle_Grid" data-name="Circle Grid"><circle cx="64" cy="64" fill="#69b0ee" r="64"/></g><g id="icon"><path d="m86.793 34.193a3.091 3.091 0 0 1 3.091 3.091v10.262a0 0 0 0 1 0 0h-6.184a0 0 0 0 1 0 0v-10.262a3.091 3.091 0 0 1 3.093-3.091z" fill="#575b6d" transform="matrix(.796 .605 -.605 .796 42.449 -44.201)"/><path d="m61.479 28.814h5.041v5.041h-5.041z" fill="#828a9e"/><rect fill="#575b6d" height="7.213" rx=".626" width="11.727" x="58.137" y="23"/><circle cx="64" cy="68.716" fill="#62667c" r="36.284"/><path d="m64 100.534a31.818 31.818 0 1 1 31.819-31.817 31.854 31.854 0 0 1 -31.819 31.817z" fill="#eeefee"/><g fill="#575b6d"><path d="m63.338 39.044h1.325v2.466h-1.325z"/><path d="m55.977 40.013h1.325v2.466h-1.325z" transform="matrix(.966 -.259 .259 .966 -8.745 16.065)"/><path d="m49.118 42.854h1.325v2.466h-1.325z" transform="matrix(.866 -.5 .5 .866 -15.374 30.797)"/><path d="m43.228 47.374h1.325v2.466h-1.325z" transform="matrix(.707 -.707 .707 .707 -21.515 45.272)"/><path d="m38.709 53.264h1.325v2.466h-1.325z" transform="matrix(.5 -.866 .866 .5 -27.51 61.344)"/><path d="m35.867 60.123h1.325v2.466h-1.325z" transform="matrix(.259 -.966 .966 .259 -32.19 80.76)"/><path d="m34.898 67.483h1.325v2.466h-1.325z" transform="matrix(0 -1 1 0 -33.155 104.277)"/><path d="m35.867 74.844h1.325v2.466h-1.325z" transform="matrix(-.259 -.966 .966 -.259 -27.5 131.052)"/><path d="m38.708 81.703h1.325v2.466h-1.325z" transform="matrix(-.5 -.866 .866 -.5 -12.769 158.5)"/><path d="m43.228 87.593h1.325v2.466h-1.325z" transform="matrix(-.707 -.707 .707 -.707 12.116 182.67)"/><path d="m49.118 92.113h1.325v2.466h-1.325z" transform="matrix(-.866 -.5 .5 -.866 46.218 199.075)"/><path d="m55.977 94.954h1.325v2.466h-1.325z" transform="matrix(-.966 -.259 .259 -.966 86.453 203.755)"/><path d="m63.337 95.923h1.325v2.466h-1.325z" transform="matrix(-1 0 0 -1 127.999 194.312)"/><path d="m70.698 94.954h1.325v2.466h-1.325z" transform="matrix(-.966 .259 -.259 -.966 165.184 170.627)"/><path d="m77.557 92.113h1.325v2.466h-1.325z" transform="matrix(-.866 .5 -.5 -.866 192.632 135.076)"/><path d="m83.447 87.594h1.325v2.466h-1.325z" transform="matrix(-.707 .707 -.707 -.707 206.394 92.162)"/><path d="m87.967 81.704h1.325v2.466h-1.325z" transform="matrix(-.5 .866 -.866 -.5 204.769 47.65)"/><path d="m90.808 74.845h1.325v2.466h-1.325z" transform="matrix(-.259 .966 -.966 -.259 188.63 7.414)"/><path d="m91.777 67.484h1.325v2.466h-1.325z" transform="matrix(0 1 -1 0 161.156 -23.723)"/><path d="m90.808 60.123h1.325v2.466h-1.325z" transform="matrix(.259 .966 -.966 .259 127.062 -42.878)"/><path d="m87.967 53.264h1.325v2.466h-1.325z" transform="matrix(.5 .866 -.866 .5 91.511 -49.507)"/><path d="m83.448 47.374h1.325v2.466h-1.325z" transform="matrix(.707 .707 -.707 .707 59.006 -45.238)"/><path d="m77.558 42.855h1.325v2.466h-1.325z" transform="matrix(.866 .5 -.5 .866 32.523 -33.203)"/><path d="m70.699 40.013h1.325v2.466h-1.325z" transform="matrix(.966 .259 -.259 .966 13.107 -17.064)"/><path d="m67.808 68.722a3.809 3.809 0 1 1 -3.808-3.808 3.8 3.8 0 0 1 3.808 3.808z"/><path d="m63.157 45.786h1.685v20.391h-1.685z"/></g></g></svg>